<?xml version="1.0" standalone="no"?>
<!DOCTYPE svg PUBLIC "-//W3C//DTD SVG 20010904//EN"
 "http://www.w3.org/TR/2001/REC-SVG-20010904/DTD/svg10.dtd">
<svg version="1.0" xmlns="http://www.w3.org/2000/svg"
 width="215.000000pt" height="230.000000pt" viewBox="0 0 215.000000 230.000000"
 preserveAspectRatio="xMidYMid meet">
<metadata>
Created by potrace 1.16, written by Peter Selinger 2001-2019
</metadata>
<g transform="translate(0.000000,230.000000) scale(0.100000,-0.100000)"
fill="#000000" stroke="none">
<path d="M740 2244 c-19 -2 -87 -9 -150 -15 -136 -12 -454 -64 -492 -80 -33
-14 -38 -32 -38 -154 0 -90 18 -396 23 -401 1 -1 58 9 127 22 443 82 958 100
1405 49 121 -14 399 -59 436 -70 20 -7 26 41 35 292 8 214 4 247 -34 262 -34
13 -275 55 -442 77 -118 15 -776 29 -870 18z m210 -119 c36 -8 78 -19 94 -25
22 -8 40 -7 75 4 92 29 169 40 296 40 129 0 130 0 194 -35 l65 -34 78 -174
c43 -96 77 -175 76 -177 -2 -1 -61 6 -131 16 -373 55 -1004 50 -1316 -10 -30
-5 -56 -8 -58 -6 -2 2 32 81 75 177 l79 174 54 30 c30 16 77 33 104 36 67 10
234 1 315 -16z"/>
<path d="M569 2063 c-34 -14 -41 -25 -89 -134 -29 -66 -51 -121 -49 -123 2 -2
24 0 49 6 25 5 159 12 298 15 139 3 252 9 252 14 0 29 -204 69 -352 69 l-117
0 26 68 c44 114 44 111 -18 85z"/>
<path d="M1530 2071 c0 -6 11 -40 25 -77 14 -36 25 -70 25 -74 0 -4 -64 -10
-142 -12 -109 -4 -164 -10 -230 -28 -144 -39 -120 -47 165 -53 138 -3 272 -10
297 -15 25 -6 46 -9 48 -8 1 2 -21 57 -49 123 -47 111 -53 121 -87 134 -21 8
-40 15 -44 17 -5 2 -8 -1 -8 -7z"/>
<path d="M770 1599 c-164 -11 -405 -41 -559 -70 l-113 -22 6 -49 c30 -221 160
-559 299 -770 130 -199 326 -399 511 -523 62 -41 116 -75 119 -75 4 0 7 342 7
760 l0 760 -67 -1 c-38 -1 -129 -6 -203 -10z m19 -199 c69 -37 118 -88 153
-159 19 -38 23 -62 23 -141 0 -85 -3 -101 -28 -148 -36 -69 -98 -129 -167
-161 -79 -37 -191 -37 -271 0 -78 37 -133 90 -169 163 -69 140 -39 292 78 398
75 67 137 89 242 85 63 -3 86 -9 139 -37z"/>
<path d="M1110 1506 l0 -103 95 -63 95 -63 0 -209 0 -209 -90 61 c-49 33 -92
60 -95 60 -3 0 -5 -200 -5 -445 0 -245 3 -445 6 -445 3 0 48 27 100 61 l94 61
0 309 c0 170 2 309 5 309 3 0 43 -25 90 -57 l85 -56 0 -171 0 -170 41 39 c155
150 319 416 414 670 40 107 90 292 101 373 l6 49 -83 16 c-46 10 -90 17 -96
17 -10 0 -13 -69 -13 -310 l0 -311 -90 61 -90 61 0 263 0 264 -37 6 c-21 3
-64 8 -95 12 l-58 6 -2 -211 -3 -211 -87 58 -88 57 0 156 0 156 -37 7 c-21 3
-66 6 -100 6 l-63 0 0 -104z m488 -428 l72 -49 0 -205 c0 -113 -4 -204 -9
-202 -4 2 -42 26 -84 53 l-77 50 0 208 c0 164 3 207 13 201 6 -4 45 -29 85
-56z"/>
</g>
</svg>
