<?xml version="1.0" standalone="no"?>
<!DOCTYPE svg PUBLIC "-//W3C//DTD SVG 20010904//EN"
 "http://www.w3.org/TR/2001/REC-SVG-20010904/DTD/svg10.dtd">
<svg version="1.0" xmlns="http://www.w3.org/2000/svg"
 width="200.000000pt" height="200.000000pt" viewBox="0 0 200.000000 200.000000"
 preserveAspectRatio="xMidYMid meet">
<metadata>
Created by potrace 1.16, written by Peter Selinger 2001-2019
</metadata>
<g transform="translate(0.000000,200.000000) scale(0.100000,-0.100000)"
fill="#000000" stroke="none">
<path d="M887 1989 c-410 -44 -746 -339 -854 -748 -22 -82 -26 -118 -26 -241
0 -123 4 -159 26 -241 96 -364 363 -631 726 -726 78 -20 121 -25 226 -25 284
-2 504 89 706 291 149 150 233 305 275 512 25 125 16 344 -20 464 -54 180
-141 321 -279 452 -207 196 -495 293 -780 262z m338 -67 c172 -47 309 -126
431 -247 128 -128 207 -264 256 -444 31 -110 31 -352 0 -462 -48 -177 -127
-315 -251 -440 -125 -125 -270 -208 -446 -255 -105 -28 -350 -26 -460 4 -327
90 -590 354 -677 680 -31 117 -35 310 -10 432 78 378 367 665 752 746 91 19
312 11 405 -14z"/>
<path d="M834 1834 c-52 -36 -75 -70 -36 -57 14 5 13 3 -3 -10 -20 -16 -40
-13 -30 4 14 22 -8 6 -40 -30 -44 -49 -88 -112 -81 -118 4 -5 180 -33 182 -30
0 1 8 38 17 81 11 52 13 83 7 91 -5 7 -7 15 -3 19 4 4 -1 4 -12 0 -18 -7 -18
-6 -6 9 9 12 17 14 26 7 8 -7 15 -3 24 16 8 19 8 24 -1 18 -8 -5 -9 -2 -5 9 8
22 7 22 -39 -9z"/>
<path d="M695 1827 c-16 -7 -32 -15 -35 -19 -3 -4 -17 -9 -31 -11 -35 -7 -91
-42 -81 -52 4 -5 2 -5 -5 -1 -11 6 -103 -51 -103 -64 0 -7 100 -40 122 -40 24
0 66 72 63 108 -1 17 1 29 6 27 4 -3 6 -14 4 -25 -2 -12 0 -18 6 -15 5 4 9 12
9 18 0 7 9 19 19 27 11 7 18 17 15 22 -3 4 -1 8 3 8 5 0 18 7 29 15 22 17 20
17 -21 2z"/>
<path d="M954 1806 c-1 -19 2 -23 15 -19 13 4 14 3 1 -5 -10 -8 -19 -7 -29 1
-12 10 -14 9 -8 -5 3 -10 2 -18 -2 -18 -5 0 -16 -33 -26 -72 -9 -40 -18 -79
-21 -85 -2 -10 23 -13 107 -13 l111 0 -7 43 c-11 61 -40 149 -47 141 -4 -3 -4
3 -1 15 7 26 -21 39 -43 20 -14 -11 -18 -11 -29 4 -16 23 -20 22 -21 -7z"/>
<path d="M1146 1815 c-9 -7 -13 -16 -7 -19 10 -7 10 -24 -2 -42 -4 -7 0 -44 9
-83 l16 -71 38 0 c38 0 140 17 148 24 8 9 -85 121 -135 162 -42 36 -51 40 -67
29z"/>
<path d="M1290 1819 c-12 -7 -9 -9 10 -9 20 0 22 -2 10 -10 -10 -6 -11 -10 -2
-10 6 0 12 -5 12 -10 0 -20 43 -69 54 -63 6 3 8 3 4 -2 -4 -4 2 -25 13 -45
l21 -37 69 20 c38 11 69 24 69 29 0 4 -15 17 -32 28 -18 10 -39 24 -45 30 -7
6 -13 8 -13 5 0 -4 -7 1 -16 9 -21 21 -35 20 -27 -1 3 -10 3 -15 -1 -11 -4 3
-9 14 -10 23 -4 24 -26 35 -52 25 -14 -6 -26 -5 -29 1 -4 5 -3 8 2 7 4 -2 9 2
11 7 1 6 -1 10 -5 10 -5 0 -13 3 -18 7 -6 4 -17 3 -25 -3z"/>
<path d="M327 1576 c-25 -30 -62 -80 -82 -112 l-35 -59 52 -24 c74 -32 168
-62 179 -55 5 3 9 11 9 17 0 7 20 62 45 122 24 61 41 113 37 116 -7 6 -142 49
-153 49 -3 0 -26 -24 -52 -54z"/>
<path d="M1525 1608 c-33 -11 -65 -21 -72 -23 -8 -3 -2 -27 21 -77 19 -40 42
-99 52 -130 10 -32 21 -58 24 -58 11 0 142 46 188 67 l44 19 -50 74 c-61 90
-115 150 -133 149 -8 -1 -41 -10 -74 -21z"/>
<path d="M568 1493 c-39 -83 -73 -182 -66 -188 10 -10 164 -37 221 -38 l62 -2
8 84 c4 46 11 107 15 136 l8 51 -94 13 c-52 7 -100 15 -106 17 -8 3 -27 -26
-48 -73z"/>
<path d="M1272 1552 c-95 -15 -103 -18 -98 -36 3 -11 11 -74 18 -140 l12 -119
67 7 c65 6 209 33 216 40 10 9 -94 268 -106 265 -3 -1 -52 -9 -109 -17z"/>
<path d="M862 1458 c-6 -40 -14 -103 -18 -140 l-7 -66 77 -4 c42 -1 112 -2
157 0 l81 4 -6 41 c-3 23 -11 86 -17 140 l-12 97 -123 0 -122 0 -10 -72z"/>
<path d="M155 1269 c-14 -46 -29 -111 -32 -144 -6 -71 3 -84 69 -92 24 -3 56
-17 71 -29 35 -29 75 -40 96 -27 10 6 19 32 23 67 4 31 16 92 26 137 14 57 16
82 8 84 -6 2 -54 20 -106 40 -52 20 -103 39 -112 42 -13 4 -22 -11 -43 -78z"/>
<path d="M1705 1314 c-44 -18 -95 -36 -112 -40 -34 -6 -37 -14 -24 -48 6 -17
9 -15 20 12 20 47 4 55 191 -93 49 -39 86 -62 88 -55 11 33 -52 261 -72 259
-6 -1 -47 -16 -91 -35z"/>
<path d="M471 1213 c-20 -78 -41 -193 -41 -228 0 -32 4 -38 38 -52 30 -13 45
-14 79 -4 39 10 46 9 79 -14 37 -25 96 -33 122 -17 9 6 15 54 21 153 5 79 8
145 7 145 0 1 -61 11 -134 23 -73 12 -140 25 -147 27 -9 4 -17 -7 -24 -33z"/>
<path d="M1395 1229 c-49 -10 -111 -21 -137 -24 l-48 -6 6 -127 c7 -172 7
-172 48 -172 43 0 67 22 96 90 13 30 27 59 31 63 3 5 24 -1 45 -12 l38 -20 28
49 c15 27 28 56 28 64 0 37 -23 116 -33 115 -7 -1 -52 -10 -102 -20z"/>
<path d="M826 1115 c-10 -132 -7 -211 7 -224 27 -21 76 -24 123 -6 41 16 48
16 85 1 45 -18 100 -13 120 10 8 10 9 53 4 153 l-7 140 -163 3 -162 3 -7 -80z"/>
<path d="M1618 1148 c-9 -13 -36 -65 -62 -116 -25 -51 -51 -92 -57 -92 -5 0
-24 7 -41 16 -17 9 -34 12 -38 7 -5 -4 -58 -120 -119 -257 -61 -137 -115 -254
-119 -258 -5 -5 -44 0 -90 11 -44 12 -88 21 -97 21 -9 0 -66 -40 -127 -90
l-110 -89 -59 30 -59 29 -75 -41 c-41 -22 -75 -44 -75 -48 0 -15 178 -101 265
-127 81 -25 105 -27 240 -27 134 0 159 2 238 26 358 110 603 406 641 777 l7
65 -118 90 c-64 50 -120 91 -124 93 -3 1 -13 -8 -21 -20z"/>
<path d="M110 966 c0 -22 36 -56 59 -56 11 0 23 -5 27 -11 13 -21 89 -49 136
-49 26 0 50 -5 53 -10 13 -21 79 -40 137 -40 32 0 72 -7 87 -15 42 -21 105
-29 141 -16 24 8 38 8 53 -1 35 -19 92 -26 144 -17 27 4 74 3 108 -3 50 -8 67
-7 105 7 25 9 61 19 80 22 35 6 50 17 50 41 0 19 -72 15 -121 -8 -52 -23 -80
-24 -133 -5 -29 10 -45 11 -60 3 -30 -16 -117 -13 -154 6 -27 14 -39 15 -73 6
-44 -12 -87 -6 -134 18 -19 9 -51 14 -87 13 -56 -2 -86 7 -121 37 -12 11 -34
15 -67 13 -49 -2 -79 7 -115 39 -11 9 -33 20 -50 23 -16 3 -38 9 -47 12 -13 5
-18 2 -18 -9z"/>
</g>
</svg>
